<?xml version="1.0" encoding="UTF-8"?>
<svg xmlns="http://www.w3.org/2000/svg" xmlns:xlink="http://www.w3.org/1999/xlink"
     width="150" height="160" viewBox="0 -160 150 160">
<defs>
</defs>
<path d="M20.0,-140 L70.0,-120" fill="none" stroke="green" />
<path d="M20.0,-140 L30.0,-120" fill="none" stroke="green" />
<path d="M20.0,-140 L50.0,-120" fill="none" stroke="green" />
<path d="M100.0,-60 L90.0,-40" fill="none" stroke="green" />
<path d="M30.0,-120 L20.0,-100" fill="none" stroke="green" />
<path d="M50.0,-120 L40.0,-100" fill="none" stroke="green" />
<path d="M40.0,-100 L90.0,-80" fill="none" stroke="green" />
<path d="M40.0,-100 L110.0,-80" fill="none" stroke="green" />
<path d="M90.0,-80 L80.0,-60" fill="none" stroke="green" />
<path d="M90.0,-40 L40.0,-20" fill="none" stroke="green" />
<path d="M20.0,-100 L30.0,-80" fill="none" stroke="green" />
<path d="M20.0,-100 L50.0,-80" fill="none" stroke="green" />
<path d="M20.0,-100 L70.0,-80" fill="none" stroke="green" />
<path d="M30.0,-80 L20.0,-60" fill="none" stroke="green" />
<path d="M50.0,-40 L20.0,-20" fill="none" stroke="green" />
<path d="M20.0,-60 L30.0,-40" fill="none" stroke="green" />
<path d="M30.0,-40 L20.0,-20" fill="none" stroke="green" />
<path d="M30.0,-40 L40.0,-20" fill="none" stroke="green" />
<path d="M70.0,-120 L60.0,-100" fill="none" stroke="green" />
<path d="M60.0,-100 L130.0,-80" fill="none" stroke="green" />
<path d="M130.0,-80 L100.0,-60" fill="none" stroke="green" />
<path d="M110.0,-80 L80.0,-60" fill="none" stroke="green" />
<path d="M50.0,-80 L40.0,-60" fill="none" stroke="green" />
<path d="M40.0,-60 L50.0,-40" fill="none" stroke="green" />
<path d="M70.0,-80 L60.0,-60" fill="none" stroke="green" />
<path d="M60.0,-60 L70.0,-40" fill="none" stroke="green" />
<path d="M70.0,-40 L20.0,-20" fill="none" stroke="green" />
<circle cx="20.0" cy="-140" r="3" fill="red" />
<circle cx="30.0" cy="-120" r="3" fill="blue" />
<circle cx="50.0" cy="-120" r="3" fill="blue" />
<circle cx="20.0" cy="-100" r="3" fill="blue" />
<circle cx="40.0" cy="-100" r="3" fill="blue" />
<circle cx="30.0" cy="-80" r="3" fill="blue" />
<circle cx="90.0" cy="-80" r="3" fill="blue" />
<circle cx="20.0" cy="-60" r="3" fill="blue" />
<circle cx="80.0" cy="-60" r="3" fill="blue" />
<circle cx="100.0" cy="-60" r="3" fill="blue" />
<circle cx="30.0" cy="-40" r="3" fill="blue" />
<circle cx="50.0" cy="-40" r="3" fill="blue" />
<circle cx="90.0" cy="-40" r="3" fill="blue" />
<circle cx="20.0" cy="-20" r="3" fill="blue" />
<circle cx="40.0" cy="-20" r="3" fill="blue" />
</svg>